<svg xmlns="http://www.w3.org/2000/svg" xmlns:xlink="http://www.w3.org/1999/xlink" version="1.1" x="0px" y="0px" viewBox="0 0 100 125" style="enable-background:new 0 0 100 100;" xml:space="preserve"><g><path d="M42.7,80.9c0,0-4.9,0.5-8.5-0.5c0,0,3.3,4.4,4.6,5.9c1.3,1.5,2.1,5.6,1.3,5.6c-0.8,0-0.8,0-0.8,0s-1,0.3-1.1,1.6   s4.1,2.1,5.7,0.8c1.7-1.3,1.5-5.7,0.7-7.4C43.7,85.4,42.7,80.9,42.7,80.9z"/><path d="M83,79.2c-0.1-0.2-1-1.5-1.1-1.7c-1.6-3.5-3.3-6.6-3.3-6.6s-1.2,3.8-2.8,7.9v2.6c0,0,2.6,1.5,3.6,2.1l0,0   c2.3,1.3,5,2.9,5.6,3.2c1,0.5,2.8,4.3,2.8,4.3s0.2,1.1-1.8,2.1c-0.9,0.4-0.5,2.6,0.2,2.6c0.7,0,6.1,0.8,6.2-2   c0.2-2.8-4.1-11-4.1-11S85.1,81.5,83,79.2z"/><path d="M12.3,45.4c0,0-2.3-1-3.3-1.8c-1-0.8-3-1.5-3-1.5s-2.3,1.5-2.8,3.5c-0.5,1.9,1.4,5,1.4,5s0,0,0.4-1.5   c0.4-1.5,1-2.1,3.9-2.4C11.7,46.1,12.3,45.4,12.3,45.4z"/><path d="M55.8,25.3c1.5,1.9-0.6,5.4-0.6,5.4s1.2,0.4,1.9,1.8c0.7,1.4-2.3,6-2.3,6c0.7,0.4,1.2,2.1,1.2,2.1c0.8,3.5-4.4,5.5-4.4,5.5   c0.5,0.5,0.5,1.7,0.5,1.7c-0.2,3-6.9,7.3-6.9,7.3c1.4,0.4,9.1-0.3,9.1-0.3C61,53.3,71.9,42.9,75.3,41c3.4-1.9,0-2.9,0-2.9l-9.3,0.5   c13.8-4.2,14.6-8.2,12.2-7.7c-2.4,0.5-12.5,3.4-12.5,3.4s5-1.9,11.7-6.9c6.6-5,1.6-4.8,1.6-4.8c-5.3,3.7-13.8,6.9-13.8,6.9   s11.4-8.5,15.4-11.4c4-2.9,3.2-8,0.3-4.8C78,16.6,61.8,25.6,61.8,25.6l13-10.3C85.4,6.6,83.6-0.1,82,2.6c-1.6,2.7-8.5,8.5-8.5,8.5   c-5,6.1-14,10.6-14,10.6c5.8-3.2,14-13.5,14.6-16.2c0.5-2.7-1.9-1.6-1.9-1.6C67.9,9.7,57,17.2,57,17.2l-2.8,7.2   C55.3,24.4,55.8,25.3,55.8,25.3z"/><path d="M17.7,58.7c0,0,2.2,1.4,3.4,0.9c1.2-0.4,1.3-2.9,1.3-2.9s2.9,1.5,3.8,0.9c0.9-0.5,0.9-3.3,0.9-3.3s3.4,0.8,3.8,0.3   c0.4-0.4,0.4-2.8,0.4-2.8l0.9-0.4c0,0,0,0,0,0c0.1,0,0.2-0.1,0.4-0.2l0.1,0l0,0c0.1-0.1,0.3-0.1,0.6-0.2c0.9-0.4,0-0.8,0-0.8   c-0.7-0.2-2-1.1-2.9-1.7c-0.6-0.4-1.1-0.9-1.5-1.5c-1.8-2.5-3.2-4.9-3.9-6c-0.3-0.6-0.7-1.2-1.2-1.6c-4.6-4.7-11.1-2.8-13.1-1.7   C8.7,38.9,7,41.1,7,41.1c2.9,1.5,7.2,3.8,7.5,4.6c0.3,0.9-6.5,2.1-6.5,2.1c3.1,0.7,4.8,3.4,4.8,3.4s0.3,5.7,1.3,9.7   c0.6,0.3,1.4,0.6,1.8,0.7C16.6,61.8,17.7,58.7,17.7,58.7z M13.8,42.4c-0.6,0-1-0.5-1-1c0,0,0,0,0-0.1c-1,0.1-2.1,0.3-2.1,0.3   c1.7-1.3,3.1-1.3,3.1-1.3c0.6,0,1,0.5,1,1S14.3,42.4,13.8,42.4z"/><path d="M96.5,71.8c0,0-0.4-1-1-1.3c-1.5-1.3-3.8-1.6-4.4-1.2c-1,0.7-1.1,1,0,2c0.4,0.4,0.9,0.6,1.3,0.8c0,0,0.7,0.3,1,1.1   c0,0.2,0,0.5-0.1,0.9c-0.1,0.4-0.2,0.7-0.4,1v0c-0.3,0.3-0.8,0.8-0.8,0.8c-0.6,0.4-1.5,0.6-2.6,0.6c-2.2-0.4-2.9-1.7-3.7-3.7   c-0.6-1.7-2.6-7.7-3.8-10.6c-1.7-3.6-6-5.4-10.6-6.2l-2.5-0.4c-1.5-0.2-3.8-0.3-5.2-0.3c0,0,0,0,0,0c-3.8,0-6.7,0.4-6.7,0.4   s0,0-0.2,0l-2.1,0.2c-0.8,0.1-1.9,0.2-3.3,0.3c-2.5,0.2-4.5,0.2-6.3,0.1l-1.8-0.2c-0.8-0.1-1.6-0.2-2.5-0.4   c2.7-1.2,5.7-3.7,8.3-5.9c3.7-3.2-1.1-4-1.1-4c2.8-1.2,4.5-2.3,5.4-3c0.8-0.5,1.1-1.5,0.8-2.4c-0.7-2-3.9-0.7-3.9-0.7   c4.2-2.9,5.3-6.1,4.8-7.2c-0.5-1.1-4.2,1.3-4.2,1.3l1.9-2.7c1.5-1.8,2.1-3.1,2.2-4.1c0.2-1.1-1.2-1.9-2-1.1l-1.3,1.2   c1.9-5.8,3.4-9.8,3.4-9.8c-5,2.4-5.3,4-9.8,15.1c-4.2,10.4-11,19-11.8,20c-0.2-0.2-0.4-0.4-0.5-0.6l-0.8,0.3c0,0,0.3,2.2-0.5,2.9   c-0.8,0.7-3.6,0.1-3.6,0.1s-0.3,2.8-1.1,3c-0.9,0.3-3.6-0.5-3.6-0.5s0,1.2-1,2.3c-1,1.1-4-0.3-4-0.3S18,61.5,17,62.6   c-0.5,0.6-1.6,0.3-2.3,0c1.5,3.8,3.2,8.3,7.1,10.6c0,0,0.4-5.3,0.4-9.3l0,0.1c0.6,2,0.9,4.1,0.9,6.3c0,3.4,0.1,7.3,0.1,7.3   s-2.1,5.6-4.1,8.4c-2,2.8-2.1,4.1-2.3,7.1c-0.2,3,1.5,3.1,3.3,3.1c1.8,0,2.3-4.6,2.5-5.1c0.2-0.5,1.5-2.5,3.9-4.8   c0.6-0.6,1.3-1.3,2-2.2l1.9-2.4c1.4-1.7,2.4-3.2,2.4-3.2l3.3-5.5L34,79c0,0,2.2,1,5.6,0.9c1.4,0,3-0.5,4.7-0.8l3.1-0.5   c0.1,0,0.3,0,0.4,0c7.6-0.6,11.2-4.3,13.4-3.9c1.2,0.2,1.5,2,1.9,3.8v0c0.3,1,0.5,2.9,1.6,3.7c0.1,0.1,0.2,0.2,0.4,0.3l1.2,1.5   c0.1,0.1,0.2,0.3,0.3,0.5l0,0l0,0c0.3,0.5,1.1,2.1,1.3,2.7c0,0,0,0,0,0c0.4,0.9,0.8,1.8,1.2,2.5c1.3,2.5,0,5.1,0,5.1   s-0.8-0.3-2.5,0.5c-0.8,0.4-0.7,1.1-0.5,1.7c0.3,0.7,1.1,1.1,1.8,1.1h3.4c1.5,0,2-1,2-1s1.5-2.8,1.6-5.6c0.2-2.8-0.8-3.3-0.8-4.1   c0-0.3-0.1-1.3,0-2.7c0,0,0,0,0,0c0.2-2.2,0.8-7.5,1.8-9.7c2.3-4.9,2.3-8.9,2.3-8.9s1,2.3,1.2,2.7c0.7,1.4,2.3,4.9,3.1,6.5   c0.3,0.6,0.6,1.1,0.8,1.4c0.9,1.4,2.1,3,4.3,3.8c0,0,0,0,0,0c1.9,0.7,3.9,0.5,5.6-0.5c0.6-0.4,1.3-1,1.3-1c1.2-1.1,2-2.6,2.3-4.5   C97,73.4,96.8,72.6,96.5,71.8z"/><path d="M17.9,29.2l-1.7,0.5l3.6,3.6h-1.5l1,1.9c0,0,3.2,1,4.8,2.7c1.6,1.6,4.5,5.9,5.1,7.1c0.6,1.1,2.5,3.4,4.2,3.8l-0.2-2.3   c0,0-2.6-10.3-5.4-14.5S16.4,21.2,15.1,12.6c0,0-0.3-3.9-1.3-4.1s-2.1,4.6,1,13.2C17.2,27.9,17.8,29,17.9,29.2z"/><path d="M19.7,20.6c0,0-1.3-7.1-0.9-9.3c0,0,0.3-0.9-0.6-1.3c-0.9-0.4-1.8,5.5-0.6,6.7C17.6,16.8,18.9,19.8,19.7,20.6z"/><path d="M23.5,25.2c0,0-1.5-5.7-1.6-8.1c-0.1-2.3-1.7-1-1.4,4.5C20.5,21.6,22.2,24.3,23.5,25.2z"/><path d="M12.8,22.4l-1.4-1.1c0,0-1.3-0.4-0.1,1.5s3.3,4.4,4.6,5l-1.2-3.4l-1.1-3.5c0,0-1.6-2.5-2.3-4.1c-0.6-1.6-1-0.1-0.7,1   C10.9,18.5,11.6,20.7,12.8,22.4z"/></g><text x="0" y="115" fill="#000000" font-size="5px" font-weight="bold" font-family="'Helvetica Neue', Helvetica, Arial-Unicode, Arial, Sans-serif">Created by parkjisun</text><text x="0" y="120" fill="#000000" font-size="5px" font-weight="bold" font-family="'Helvetica Neue', Helvetica, Arial-Unicode, Arial, Sans-serif">from the Noun Project</text></svg>