<svg xmlns="http://www.w3.org/2000/svg" xmlns:xlink="http://www.w3.org/1999/xlink" version="1.1" x="0px" y="0px" viewBox="0 0 100 125" style="enable-background:new 0 0 100 100;" xml:space="preserve"><g><path d="M15.2,31.6c1-0.7,2.3-0.8,3.3-0.2c0.8,0.4,1.9,1.2,2.9,2.7c0.3,0.4,0.6,0.9,0.9,1.3c0.4-0.1,1-0.3,1.6-0.1   c0.9,0.4,2.3,2.1,1,4.3l-0.7,0.9c0.3,0.8,0.5,1.5,1,2c1.3,1.4,3.1,0.2,3.1,0.2s-2.6-0.2,0-3c0.9-1,1.5-2.1,1.8-3.3   c0.4-2.3-0.2-4.8-1.5-6.8c0.9-0.4,1.7-1.1,2.1-2.1c0.8-2-0.1-4.3-2.1-5.2c-2-0.8-4.3,0.1-5.2,2.1c-0.2,0.5-0.3,1-0.3,1.4   c-2.9-0.6-6,0.3-8,1.8c0,0-3.7,0.3-4.2,2.7c-0.3,1.5,1.3,2.5,3.8,2.8C14.6,33.2,14,32.4,15.2,31.6z"/><path d="M55.8,77.4c0,0-2.8-10.1-6.7-12.5c0,0,6.2-0.1,12.9-2.5c0,0-7-3.6-10.4-3.9c0,0,6-0.3,9.4-3.8c0,0-10.1-1.7-16.1,1.7   c-1.5,0.9-2.7,1.1-3.7,1c-1,0.5-4.2,1.4-11.6-2.8c-0.9-0.5-3.8,0.1-5.4,1.4c0.5,1.7,2,3.8,4,4.5c1.3,0.5,2.6,1,3.7,1.8   c2,1.4,4.7,3.4,4.8,4.3c0,0,0.5,13,1,17.7c0,0,7.2-8.1,6.8-12.1C44.5,72.2,48.4,76.5,55.8,77.4z"/><path d="M29.9,54c1.6,0.7,7.2,3.8,10.2,3.1c-2-1.1-2.7-3.9-3.3-4.9c-0.1-0.2-0.4-0.7-0.6-1.2L49,52.2c2.4,0.6,10.5,1.3,10.5,1.3   s4.5,1.1,6.2,1.5c1.7,0.4,1.3-0.9,0.9-1.5c-0.4-0.6,1.7-1.7,3-2.8c1.3-1.1-1.9-1.3-4.1-0.2c-2.1,1.1-4.1,0.6-4.1,0.6   s-9.4-3.2-11.6-3c-2.1,0.2-14-2.6-16.1-3.2c-1.7-0.5-3.8-0.4-4.7-0.3c-3.7,0.3-5.2-2.6-5.2-2.6c-0.2-0.6-0.4-1.2-0.6-1.9   c2.2-1.3,1.1-4-0.1-4.1c-0.8-0.1-1.1,0.4-1.2,0.8c-1.1-2.5-2.6-4.7-4.7-5c0,0-1.2-0.1-1.5,0.2c-0.2,0.2-0.6,0.1-0.4,1.6l0,0.4   c0,0-1.3,0-2.4-0.3c0,0-0.5,1.5-0.1,2.7c0.4,1.2,1.6,1.8,1.3,3.2c-0.3,1.4-1.3,1.3-1,2c0.3,0.7,1.3,0.9,1.3,0.9s-0.2,0.8,0,1.1   L15,44c0,0-0.1,0.7,0.4,0.9c0.5,0.2,0.6,1.7,1.6,1.7s2.4-0.4,3.4-1c0,0,0.3,0.2,0.8,0.6c0.4,0.5,1,1.5,1.4,3.3c0,0,1.1,3.4,1.5,5.6   C25.3,54.3,27.9,53.1,29.9,54z"/><path d="M84.9,92.8c-2.4-1.7-1.5-5.4-2.8-6c-1.3-0.6-1.9,1.3-5.4-0.6c-3.4-1.9-10.6-7.7-14.4-9.1c-2.8-1-6.9-3.9-6.9-3.9   s1.9,3.6,1.8,5.5c0,0-5.5-1-6.3-1.4l4.7,2.8c0,0,1,0.8,2.5,1.4c1.5,0.6,19.8,9.9,19.8,9.9s4.3,4.3,6.4,4.5c2.1,0.2,2.6,3,3,1.9   C87.7,96.7,87.3,94.5,84.9,92.8z"/><path d="M89,59.5c-0.8-0.6-3.2,1.3-4.7,1.3c-1.5,0-3.6-1.2-4.7-0.2c-2,1.7,1.3,2.4-4.7,4.5c-6,2.1-10.7,6.4-12.2,6.4   c-1.5,0-9.2-4.7-9.2-4.7l-1.7-1c1.4,1.4,3.2,5.6,3.2,5.6c1.7,1.5,6,3.8,7,4.2c1.1,0.4,3.9,2,3.9,2s6-5.4,9.7-8.8   c3.6-3.4,6-2.7,8.4-4.6C85.7,62.8,90.3,60.5,89,59.5z"/><path d="M33.2,44l3.2,0.7c4.3-8.8,19.8-15,19.8-15C59.6,14.2,44.5,2,44.5,2S39,4.3,35.1,16.2C31.1,28.2,33.2,44,33.2,44z"/><path d="M37.6,44.9c1.3,0.7,11.4,2.3,11.4,2.3c4-0.3,9.6,2.2,9.6,2.2c5.2-2.2,5.2-9.1,5.2-9.1c-0.1-8.7-7.7-9.7-7.7-9.7   C39.9,38,37.6,44.9,37.6,44.9z"/><path d="M37.5,51.8c0,0,0.7,1.1,0.9,1.8c0.2,0.7,0.8,1.3,0.8,1.3s8.1-0.1,11.2-1.4c0,0-1.9-0.4-2.1-0.4   C48.1,53,38.2,52.4,37.5,51.8z"/><path d="M30.6,22.5c3.4,4.3-0.7,7.4-0.7,7.4c1.9,3.4,1.2,7.2,0.8,8.2c-0.4,1-1,1.5-1,1.5c0.3,0.6,0.6,3.9,0.6,3.9l0.1,0.4l2.2,0   c0,0-1.3-6.7-0.5-14.9c0.8-8.2,2.4-13.5,2.4-13.5l-0.1-0.4c-0.4-2.4-4.9-7.6-4.9-7.6c-4,7.2-2.6,13.8-2.6,13.8   C29,20.8,30.6,22.5,30.6,22.5z"/></g><text x="0" y="115" fill="#000000" font-size="5px" font-weight="bold" font-family="'Helvetica Neue', Helvetica, Arial-Unicode, Arial, Sans-serif">Created by parkjisun</text><text x="0" y="120" fill="#000000" font-size="5px" font-weight="bold" font-family="'Helvetica Neue', Helvetica, Arial-Unicode, Arial, Sans-serif">from the Noun Project</text></svg>